<svg width="35" height="35" viewBox="0 0 35 35" fill="none" xmlns="http://www.w3.org/2000/svg">
<path d="M17.1975 2.51989C25.2941 2.51989 31.8844 9.05323 31.8844 17.0799C31.8844 25.1066 25.2941 31.6399 17.1975 31.6399C9.10086 31.6399 2.51058 25.1066 2.51058 17.0799C2.51058 9.05323 9.10086 2.51989 17.1975 2.51989ZM17.1975 0.0310059C7.68866 0.0310059 -1.91542e-06 7.65323 -1.91542e-06 17.0799C-1.91542e-06 26.5066 7.68866 34.1288 17.1975 34.1288C26.7063 34.1288 34.395 26.5066 34.395 17.0799C34.395 7.65323 26.7063 0.0310059 17.1975 0.0310059Z" fill="white" fill-opacity="0.5"/>
<path d="M21.5596 17.0796H18.7038V27.1596H14.4672V17.0796H12.4587V13.533H14.4672V11.2307C14.4672 9.58186 15.2518 6.99963 18.7352 6.99963H21.8734V10.453H19.6139C19.2373 10.453 18.7038 10.6396 18.7038 11.4174V13.5019H21.9362L21.5596 17.0796Z" fill="white" fill-opacity="0.5"/>
</svg>
