<svg width="69" height="56" viewBox="0 0 69 56" fill="none" xmlns="http://www.w3.org/2000/svg">
<g filter="url(#filter0_d)">
<path d="M61.27 31.8816H57.97V15.0613C57.97 12.093 55.55 9.67442 52.58 9.67442H42.13V4.5074C42.13 2.08879 40.15 1.31055e-08 37.62 1.31055e-08H19.03C16.61 1.31055e-08 14.52 1.97886 14.52 4.5074V15.2812H6.05C2.75 15.2812 0 17.9197 0 21.3277V45.9535C0 49.2516 2.64 52 6.05 52H30.69C33.99 52 36.74 49.3615 36.74 45.9535V43.4249H46.86V46.1734C46.86 47.8224 48.29 49.1416 49.94 49.1416H61.16C62.81 49.1416 64.13 47.8224 64.13 46.1734V34.9598C64.24 33.2008 62.92 31.8816 61.27 31.8816ZM35.2 45.9535C35.2 48.3721 33.22 50.3509 30.8 50.3509H6.05C3.63 50.3509 1.65 48.3721 1.65 45.9535V21.3277C1.65 18.9091 3.63 16.9302 6.05 16.9302H14.52V23.0867C14.52 25.5053 16.5 27.5941 19.03 27.5941H24.09V38.0381C24.09 41.0063 26.51 43.4249 29.48 43.4249H35.2V45.9535ZM62.92 46.1734C62.92 47.1628 62.15 47.9323 61.16 47.9323H49.94C48.95 47.9323 48.18 47.1628 48.18 46.1734V43.4249H52.47C55.44 43.4249 57.86 41.0063 57.86 38.0381V33.2008H61.16C62.15 33.2008 62.92 33.9704 62.92 34.9598V46.1734V46.1734Z" fill="#8791AB"/>
<path d="M56.8699 9.89436H61.2699C62.0399 9.89436 62.6999 9.23474 62.6999 8.46519V4.06773C62.6999 3.29817 62.0399 2.63855 61.2699 2.63855H56.8699C56.0999 2.63855 55.4399 3.29817 55.4399 4.06773V8.46519C55.4399 9.23474 56.0999 9.89436 56.8699 9.89436Z" fill="#8791AB"/>
<path d="M22.33 42.1057H17.93C17.16 42.1057 16.5 42.7653 16.5 43.5349V47.9324C16.5 48.7019 17.16 49.3615 17.93 49.3615H22.33C23.1 49.3615 23.76 48.7019 23.76 47.9324V43.5349C23.76 42.7653 23.1 42.1057 22.33 42.1057Z" fill="#8791AB"/>
</g>
<defs>
<filter id="filter0_d" x="0" y="0" width="68.1365" height="56" filterUnits="userSpaceOnUse" color-interpolation-filters="sRGB">
<feFlood flood-opacity="0" result="BackgroundImageFix"/>
<feColorMatrix in="SourceAlpha" type="matrix" values="0 0 0 0 0 0 0 0 0 0 0 0 0 0 0 0 0 0 127 0" result="hardAlpha"/>
<feOffset dx="2" dy="2"/>
<feGaussianBlur stdDeviation="1"/>
<feColorMatrix type="matrix" values="0 0 0 0 0 0 0 0 0 0 0 0 0 0 0 0 0 0 0.1 0"/>
<feBlend mode="normal" in2="BackgroundImageFix" result="effect1_dropShadow"/>
<feBlend mode="normal" in="SourceGraphic" in2="effect1_dropShadow" result="shape"/>
</filter>
</defs>
</svg>
