<svg width="35" height="35" viewBox="0 0 35 35" fill="none" xmlns="http://www.w3.org/2000/svg">
<path d="M17.1975 3.2666C25.2941 3.2666 31.8844 9.79993 31.8844 17.8266C31.8844 25.8533 25.2941 32.3866 17.1975 32.3866C9.10086 32.3866 2.51058 25.8533 2.51058 17.8266C2.51058 9.79993 9.10086 3.2666 17.1975 3.2666ZM17.1975 0.77771C7.68866 0.77771 0 8.39993 0 17.8266C0 27.2533 7.68866 34.8755 17.1975 34.8755C26.7063 34.8755 34.395 27.2533 34.395 17.8266C34.395 8.43104 26.7063 0.77771 17.1975 0.77771Z" fill="white" fill-opacity="0.5"/>
<path d="M13.2119 16.862V19.2265H17.166C17.0091 20.2531 15.9735 22.2131 13.2119 22.2131C10.8268 22.2131 8.91251 20.2531 8.91251 17.8576C8.91251 15.462 10.8582 13.502 13.2119 13.502C14.5613 13.502 15.4714 14.062 15.9735 14.5598L17.8565 12.7554C16.6325 11.6354 15.0634 10.9509 13.1805 10.9509C9.32047 10.9509 6.21362 14.0309 6.21362 17.8576C6.21362 21.6843 9.32047 24.7643 13.1805 24.7643C17.1974 24.7643 19.8649 21.9643 19.8649 18.0131C19.8649 17.5465 19.8022 17.2043 19.7708 16.862H13.2119Z" fill="white" fill-opacity="0.5"/>
<path d="M28.1185 16.8621H26.1414V14.9021H24.1643V16.8621H22.1873V18.8221H24.1643V20.7821H26.1414V18.8221H28.1185V16.8621Z" fill="white" fill-opacity="0.5"/>
</svg>
