<svg width="35" height="35" viewBox="0 0 35 35" fill="none" xmlns="http://www.w3.org/2000/svg">
<path d="M17.1975 3.35998C25.2941 3.35998 31.8844 9.89332 31.8844 17.92C31.8844 25.9466 25.2941 32.48 17.1975 32.48C9.10086 32.5111 2.51058 25.9778 2.51058 17.9511C2.51058 9.89332 9.10086 3.35998 17.1975 3.35998ZM17.1975 0.871094C7.68866 0.871094 0 8.52443 0 17.9511C0 27.3778 7.68866 35 17.1975 35C26.7063 35 34.395 27.3778 34.395 17.9511C34.4264 8.52443 26.7063 0.871094 17.1975 0.871094Z" fill="white" fill-opacity="0.5"/>
<path d="M27.836 11.4179C27.0514 11.7601 26.2041 12.009 25.3254 12.1023C26.2355 11.5734 26.9259 10.7334 27.2397 9.70674C26.3924 10.2045 25.451 10.5467 24.4781 10.7645C23.6935 9.92452 22.5638 9.39563 21.3085 9.39563C18.8921 9.39563 16.9464 11.3245 16.9464 13.7201C16.9464 14.0623 16.9777 14.3734 17.0719 14.7156C13.4629 14.529 10.2305 12.8179 8.09655 10.2045C7.71996 10.8579 7.50029 11.5734 7.50029 12.3823C7.50029 13.8756 8.28484 15.2134 9.44599 15.9912C8.7242 15.9601 8.06517 15.7734 7.4689 15.4623C7.4689 15.4934 7.4689 15.4934 7.4689 15.5245C7.4689 17.609 8.97525 19.3512 10.9523 19.7556C10.5758 19.849 10.1992 19.9112 9.79119 19.9112C9.50875 19.9112 9.22631 19.8801 8.97525 19.849C9.54013 21.5601 11.1406 22.8045 13.0549 22.8356C11.5486 23.9867 9.69705 24.6712 7.6572 24.6712C7.31199 24.6712 6.96679 24.6401 6.62158 24.609C8.5359 25.8223 10.8268 26.5379 13.306 26.5379C21.3085 26.5379 25.702 19.9423 25.702 14.249C25.702 14.0623 25.702 13.8756 25.702 13.689C26.518 13.0356 27.2397 12.289 27.836 11.4179Z" fill="white" fill-opacity="0.5"/>
</svg>
