<svg width="35" height="35" viewBox="0 0 35 35" fill="none" xmlns="http://www.w3.org/2000/svg">
<path d="M17.1975 2.48889C25.2941 2.48889 31.8844 9.02222 31.8844 17.0489C31.8844 25.0756 25.2941 31.6089 17.1975 31.6089C9.10086 31.6089 2.51058 25.0756 2.51058 17.0489C2.51058 9.02222 9.10086 2.48889 17.1975 2.48889ZM17.1975 0C7.68866 0 1.91542e-06 7.62222 1.91542e-06 17.0489C1.91542e-06 26.4756 7.68866 34.0978 17.1975 34.0978C26.7063 34.0978 34.395 26.4756 34.395 17.0489C34.4264 7.62222 26.7063 0 17.1975 0Z" fill="white" fill-opacity="0.5"/>
<path fill-rule="evenodd" clip-rule="evenodd" d="M24.5724 19.3821C25.2942 20.0976 26.0787 20.751 26.7377 21.5287C27.0202 21.871 27.3026 22.2443 27.5223 22.6487C27.8361 23.2087 27.5537 23.8621 27.0202 23.8932H23.7878C22.9719 23.9554 22.2815 23.6443 21.748 23.0532C21.3086 22.6176 20.9006 22.1199 20.4613 21.6532C20.273 21.4665 20.1161 21.2799 19.8964 21.1554C19.4571 20.8754 19.0805 20.9687 18.8294 21.4043C18.5784 21.871 18.5156 22.3687 18.4842 22.8976C18.4528 23.6443 18.2332 23.8621 17.4486 23.8932C15.8167 23.9554 14.279 23.7376 12.8354 22.8976C11.5801 22.1821 10.5759 21.1554 9.72855 20.0043C8.06529 17.7643 6.77862 15.3065 5.64886 12.7865C5.3978 12.2265 5.58609 11.9154 6.21374 11.9154C7.24935 11.8843 8.31635 11.8843 9.35196 11.9154C9.79132 11.9154 10.0738 12.1643 10.2307 12.5687C10.7956 13.9687 11.486 15.2754 12.3647 16.4887C12.5843 16.7999 12.8354 17.1421 13.1806 17.3599C13.5572 17.6087 13.8396 17.5154 14.0279 17.111C14.1535 16.8621 14.1848 16.5821 14.2162 16.3021C14.3104 15.3376 14.3104 14.3732 14.1535 13.4087C14.0593 12.8176 13.7141 12.4132 13.1178 12.3199C12.804 12.2576 12.8668 12.1332 12.9923 11.9776C13.2434 11.6665 13.4944 11.4799 13.9652 11.4799H17.6055C18.1704 11.6043 18.2959 11.8532 18.3901 12.4132V16.4265C18.3901 16.6443 18.5156 17.2976 18.8922 17.4532C19.206 17.5465 19.4257 17.2976 19.614 17.111C20.4927 16.2087 21.1203 15.1199 21.6538 13.9999C21.9049 13.5021 22.1246 13.0043 22.3129 12.4754C22.4698 12.1021 22.6894 11.9154 23.1288 11.9154H26.6436C26.7377 11.9154 26.8633 11.9154 26.9574 11.9465C27.5537 12.0399 27.7106 12.2887 27.5223 12.8799C27.2399 13.7821 26.675 14.5287 26.1415 15.2754C25.5452 16.0843 24.9176 16.8621 24.3527 17.671C23.882 18.3865 23.9133 18.7599 24.5724 19.3821Z" fill="white" fill-opacity="0.5"/>
</svg>
